<svg id="visual" viewBox="0 0 900 600" width="900" height="600" xmlns="http://www.w3.org/2000/svg" xmlns:xlink="http://www.w3.org/1999/xlink" version="1.1"><rect x="0" y="0" width="900" height="600" fill="#5842fa"></rect><path d="M0 415L16.7 429C33.3 443 66.7 471 100 478C133.3 485 166.7 471 200 449.8C233.3 428.7 266.7 400.3 300 388.2C333.3 376 366.7 380 400 382.3C433.3 384.7 466.7 385.3 500 403.2C533.3 421 566.7 456 600 448C633.3 440 666.7 389 700 379C733.3 369 766.7 400 800 398.8C833.3 397.7 866.7 364.3 883.3 347.7L900 331L900 601L883.3 601C866.7 601 833.3 601 800 601C766.7 601 733.3 601 700 601C666.7 601 633.3 601 600 601C566.7 601 533.3 601 500 601C466.7 601 433.3 601 400 601C366.7 601 333.3 601 300 601C266.7 601 233.3 601 200 601C166.7 601 133.3 601 100 601C66.7 601 33.3 601 16.7 601L0 601Z" fill="#4b36eb"></path></svg>